<svg version="1" xmlns="http://www.w3.org/2000/svg" width="400" height="400" viewBox="0 0 300.000000 300.000000"><path d="M130.5 1.1c-3.8.5-11.5 2-17 3.5C57.3 18.9 15.2 62.9 2.8 120.3c-3.2 14.8-3.2 44.6 0 59.4 13.1 60.4 58.9 105.6 119.7 117.9 13.7 2.8 43.4 2.5 57.2-.4 59.7-12.9 104.6-57.8 117.5-117.5 3.1-14.6 3.2-44.7 0-58.9C283.7 59.9 240 16 179.8 2.9 169 .6 141.7-.5 130.5 1.1zM152 80.5V89h-34v139H99V89H64V72h88v8.5zm84-.1v8.5l-18.8.3-18.9.3-3.6 2.8c-6.9 5.3-6.7 3.2-6.7 57.7s-.2 52.4 6.7 57.7l3.6 2.8 18.9.3 18.8.3V228h-16.9c-18.5 0-24.9-.9-32.5-4.4-10.4-4.7-16-13.6-17.6-27.8-1.3-10.7-1.3-80.8 0-91.5 1.2-10.5 4.1-17.2 9.7-22.4 8.8-8.1 15-9.6 39.6-9.8L236 72v8.4z"/></svg>