<?xml version="1.0" encoding="UTF-8" standalone="no"?>
<!-- Created with Inkscape (http://www.inkscape.org/) -->

<svg
   xmlns:dc="http://purl.org/dc/elements/1.1/"
   xmlns:cc="http://creativecommons.org/ns#"
   xmlns:rdf="http://www.w3.org/1999/02/22-rdf-syntax-ns#"
   xmlns:svg="http://www.w3.org/2000/svg"
   xmlns="http://www.w3.org/2000/svg"
   xmlns:sodipodi="http://sodipodi.sourceforge.net/DTD/sodipodi-0.dtd"
   xmlns:inkscape="http://www.inkscape.org/namespaces/inkscape"
   width="90mm"
   height="90mm"
   viewBox="0 0 90 90"
   version="1.1"
   id="svg4556"
   inkscape:version="0.92.4 (5da689c313, 2019-01-14)"
   sodipodi:docname="techcarpenter_logo_black.svg">
  <defs
     id="defs4550" />
  <sodipodi:namedview
     id="base"
     pagecolor="#ffffff"
     bordercolor="#666666"
     borderopacity="1.0"
     inkscape:pageopacity="0.0"
     inkscape:pageshadow="2"
     inkscape:zoom="2"
     inkscape:cx="175.39776"
     inkscape:cy="167.67958"
     inkscape:document-units="mm"
     inkscape:current-layer="layer1"
     showgrid="false"
     inkscape:window-width="1920"
     inkscape:window-height="1017"
     inkscape:window-x="-8"
     inkscape:window-y="-8"
     inkscape:window-maximized="1" />
  <metadata
     id="metadata4553">
    <rdf:RDF>
      <cc:Work
         rdf:about="">
        <dc:format>image/svg+xml</dc:format>
        <dc:type
           rdf:resource="http://purl.org/dc/dcmitype/StillImage" />
        <dc:title />
      </cc:Work>
    </rdf:RDF>
  </metadata>
  <g
     inkscape:label="Layer 1"
     inkscape:groupmode="layer"
     id="layer1"
     transform="translate(0,-207)">
    <path
       id="rect5113"
       style="opacity:1;fill:#000000;fill-opacity:1;stroke:none;stroke-width:0.02849228;stroke-linecap:round;stroke-linejoin:round;stroke-miterlimit:4;stroke-dasharray:none;stroke-opacity:1"
       d="m 38.495951,246.79674 h 13.63559 v 12.61801 h -13.63559 z m 9.195407,-37.62857 c 0.413229,0.18828 0.839746,0.82593 1.164994,1.74168 0.684536,1.92738 1.671555,2.92818 2.467645,2.50212 0.321404,-0.172 0.792654,-0.74953 1.047227,-1.28338 0.431514,-0.90489 0.427573,-1.08719 -0.05826,-2.69181 -0.286631,-0.94665 -0.440796,-1.80153 -0.342596,-1.89973 0.216538,-0.21653 4.686909,2.29602 6.020251,3.38365 0.815053,0.66485 1.00511,1.06327 1.291182,2.70676 0.514401,2.95533 1.235518,3.40685 3.214726,2.01284 0.743915,-0.52396 0.783533,-0.66759 0.783533,-2.84004 v -2.28817 l 1.67064,1.4473 c 0.918853,0.79601 2.201011,2.13475 2.849235,2.97497 1.247924,1.61754 1.409875,2.41527 0.919187,4.52769 -0.366826,1.57918 0.09972,2.05771 1.817407,1.8641 0.748934,-0.0844 1.467262,-0.32428 1.596282,-0.53304 0.12901,-0.20875 0.45064,-1.26125 0.714732,-2.33886 l 0.480146,-1.95931 1.804291,3.23384 c 2.206977,3.95556 2.341112,4.46655 1.563911,5.95765 -0.603545,1.15793 -0.758733,2.41748 -0.372642,3.0245 0.11711,0.18412 0.841286,0.37644 1.60928,0.42738 l 1.39635,0.0926 1.164348,-1.92826 c 0.927996,-1.53683 1.206981,-1.82602 1.374306,-1.42462 0.299457,0.71836 1.642049,6.58336 1.642049,7.17314 0,0.27123 -0.516792,1.18579 -1.148421,2.03236 -0.631629,0.84659 -1.112432,1.7216 -1.068463,1.9445 0.139649,0.70777 1.538001,1.5523 2.263308,1.36691 0.366234,-0.0936 1.339017,-0.76133 2.161727,-1.48382 l 1.495842,-1.31363 v 4.14616 4.14617 l -0.82061,0.42435 c -2.52164,1.30399 -3.193221,2.72542 -1.899099,4.01953 0.94599,0.946 1.738946,0.8812 3.705091,-0.30274 0.915278,-0.55116 1.72219,-0.94408 1.793113,-0.87314 0.07097,0.071 -0.342457,1.77197 -0.918638,3.78009 -1.086102,3.78533 -1.791077,4.93329 -3.029579,4.93329 -0.312466,0 -0.946389,0.19562 -1.408723,0.4347 -1.088719,0.563 -1.142067,1.74709 -0.121913,2.70547 0.686604,0.64503 0.791621,0.65988 2.350611,0.33241 0.897552,-0.18854 1.943498,-0.42692 2.324345,-0.52974 0.665551,-0.17967 0.644584,-0.0994 -0.539847,2.06788 -1.57566,2.8831 -2.751434,4.60087 -3.368719,4.92159 -0.268336,0.13942 -1.257164,0.34667 -2.197404,0.46058 -0.94025,0.1139 -1.803741,0.35435 -1.91887,0.53433 -0.315287,0.49287 -0.259548,1.77643 0.112598,2.5932 0.31827,0.69853 0.425645,0.72572 2.866045,0.72572 1.562845,0 2.46996,0.10586 2.364836,0.27597 -0.0938,0.15177 -1.46443,1.45155 -3.045819,2.88839 l -2.875263,2.61243 -2.378803,-0.18285 c -2.301731,-0.17692 -2.383972,-0.16204 -2.538654,0.45945 -0.08787,0.35326 -0.05492,1.14459 0.07334,1.75851 0.230882,1.10494 0.254649,1.12196 2.353421,1.6854 l 2.120192,0.56918 -0.790425,0.59399 c -1.545475,1.16137 -5.684417,3.30074 -6.385796,3.30074 -0.391949,0 -1.472796,-0.34113 -2.401869,-0.75807 -1.542223,-0.69211 -1.728544,-0.71875 -2.141094,-0.3062 -0.248532,0.24854 -0.513776,1.096 -0.589416,1.88325 l -0.137538,1.43135 1.886855,0.93046 c 1.037772,0.51174 1.886854,1.00389 1.886854,1.09367 0,0.18204 -7.305262,2.01025 -7.977845,1.99652 -0.23506,-0.005 -1.068452,-0.51887 -1.851996,-1.14237 -1.66195,-1.3225 -2.328276,-1.42287 -2.713819,-0.40883 -0.570549,1.50066 -0.347291,2.19548 1.146752,3.56903 0.783533,0.72035 1.424607,1.44954 1.424607,1.62045 0,0.21799 -1.251876,0.26001 -4.194261,0.14079 -4.631881,-0.18766 -4.37776,-0.0822 -5.831087,-2.42069 -0.723293,-1.16384 -1.254343,-1.29872 -2.525398,-0.64143 -1.251338,0.64709 -1.238706,2.04771 0.03909,4.33776 0.752616,1.34879 0.782585,1.49584 0.304895,1.49584 -0.29137,0 -0.933542,-0.14076 -1.427052,-0.31279 L 47.0394,296.2745 v -43.70167 -43.70168 z m 40.140483,45.52319 c -0.18828,0.41323 -0.82593,0.83975 -1.741681,1.165 -1.927378,0.68453 -2.928181,1.67155 -2.502116,2.46764 0.171998,0.32141 0.749526,0.79266 1.283375,1.04723 0.904897,0.43151 1.08719,0.42757 2.691818,-0.0583 0.946647,-0.28663 1.801523,-0.4408 1.899723,-0.3426 0.216538,0.21654 -2.296013,4.68691 -3.383644,6.02025 -0.664851,0.81506 -1.063273,1.00512 -2.706765,1.29119 -2.955329,0.5144 -3.406851,1.23551 -2.012838,3.21472 0.523963,0.74392 0.667586,0.78354 2.840038,0.78354 h 2.288173 l -1.447296,1.67064 c -0.796014,0.91885 -2.134751,2.20101 -2.974971,2.84923 -1.617539,1.24792 -2.415277,1.40988 -4.527693,0.91919 -1.579181,-0.36683 -2.057712,0.0997 -1.864101,1.8174 0.08443,0.74894 0.324279,1.46727 0.533042,1.59629 0.208752,0.12901 1.261245,0.45064 2.338862,0.71473 l 1.959306,0.48014 -3.23384,1.80429 c -3.955562,2.20698 -4.46655,2.34112 -5.957653,1.56392 -1.15793,-0.60355 -2.417474,-0.75874 -3.024497,-0.37265 -0.184123,0.11711 -0.376442,0.84129 -0.427378,1.60928 l -0.09261,1.39635 1.928261,1.16435 c 1.536828,0.928 1.826022,1.20698 1.424618,1.37431 -0.718361,0.29945 -6.583359,1.64205 -7.173141,1.64205 -0.271227,0 -1.185783,-0.5168 -2.032357,-1.14842 -0.846584,-0.63163 -1.721598,-1.11244 -1.9445,-1.06847 -0.707764,0.13965 -1.552302,1.538 -1.366908,2.26331 0.09358,0.36623 0.761329,1.33902 1.483825,2.16173 l 1.313624,1.49584 H 57.256358 53.11019 l -0.424353,-0.82061 c -1.303986,-2.52164 -2.725416,-3.19322 -4.019527,-1.8991 -0.946001,0.94599 -0.881206,1.73895 0.302741,3.70509 0.551155,0.91528 0.944074,1.72219 0.87314,1.79311 -0.07097,0.071 -1.771974,-0.34245 -3.780095,-0.91863 -3.785329,-1.08611 -4.933287,-1.79108 -4.933287,-3.02958 0,-0.31247 -0.195625,-0.94639 -0.434702,-1.40873 -0.563,-1.08871 -1.747087,-1.14206 -2.705472,-0.12191 -0.645026,0.68661 -0.659876,0.79162 -0.33241,2.35061 0.188539,0.89755 0.426916,1.9435 0.529736,2.32435 0.179676,0.66555 0.0994,0.64458 -2.067877,-0.53985 -2.883103,-1.57566 -4.600867,-2.75143 -4.921592,-3.36872 -0.139412,-0.26833 -0.346668,-1.25716 -0.460579,-2.1974 -0.113901,-0.94025 -0.354345,-1.80374 -0.534323,-1.91887 -0.492875,-0.31529 -1.776432,-0.25955 -2.593209,0.1126 -0.698525,0.31827 -0.725716,0.42564 -0.725716,2.86604 0,1.56285 -0.105856,2.46996 -0.27597,2.36484 -0.151775,-0.0938 -1.45155,-1.46443 -2.88839,-3.04582 l -2.612431,-2.87527 0.182853,-2.3788 c 0.17692,-2.30173 0.162037,-2.38397 -0.459448,-2.53865 -0.353268,-0.0879 -1.144598,-0.0549 -1.758513,0.0733 -1.104937,0.23088 -1.121962,0.25465 -1.685404,2.35342 l -0.569181,2.1202 -0.593982,-0.79043 c -1.161376,-1.54547 -3.300747,-5.68442 -3.300747,-6.38579 0,-0.39195 0.341132,-1.4728 0.758076,-2.40187 0.692107,-1.54223 0.718748,-1.72855 0.306198,-2.1411 -0.248542,-0.24853 -1.095999,-0.51377 -1.883247,-0.58941 l -1.431359,-0.13754 -0.9304509,1.88685 c -0.5117411,1.03777 -1.0038938,1.88686 -1.0936728,1.88686 -0.1820454,0 -2.0102537,-7.30526 -1.9965235,-7.97785 0.00538,-0.23506 0.5188699,-1.06845 1.142369,-1.85199 1.3224976,-1.66195 1.422873,-2.32828 0.408835,-2.71382 -1.5006664,-0.57055 -2.1954867,-0.34729 -3.5690282,1.14675 -0.720353,0.78353 -1.4495471,1.42461 -1.6204577,1.42461 -0.2179916,0 -0.2600112,-1.25188 -0.1407905,-4.19426 0.1876668,-4.63188 0.082165,-4.37776 2.4206933,-5.83109 1.1638419,-0.72329 1.2987203,-1.25434 0.641429,-2.5254 -0.6470934,-1.25134 -2.0477074,-1.2387 -4.3377544,0.0391 -1.34879491,0.75262 -1.49584199,0.78259 -1.49584199,0.3049 0,-0.29137 0.14075814,-0.93354 0.31278869,-1.42705 L 0.72551446,254.0394 H 44.427186 88.128864 Z m -45.523199,40.14047 c -0.413229,-0.18828 -0.839746,-0.82593 -1.164994,-1.74168 -0.684536,-1.92738 -1.671555,-2.92818 -2.467645,-2.50211 -0.321404,0.17199 -0.792654,0.74952 -1.047227,1.28337 -0.431514,0.9049 -0.427573,1.08719 0.05826,2.69182 0.286631,0.94665 0.440796,1.80152 0.342596,1.89972 -0.216538,0.21654 -4.686909,-2.29601 -6.020251,-3.38364 -0.815053,-0.66485 -1.00511,-1.06327 -1.291182,-2.70677 -0.514401,-2.95533 -1.235518,-3.40685 -3.214726,-2.01283 -0.743915,0.52396 -0.783533,0.66758 -0.783533,2.84003 v 2.28818 l -1.67064,-1.4473 c -0.918853,-0.79601 -2.201011,-2.13475 -2.849235,-2.97497 -1.247924,-1.61754 -1.409875,-2.41528 -0.919187,-4.52769 0.366826,-1.57918 -0.09972,-2.05771 -1.817407,-1.8641 -0.748934,0.0844 -1.467262,0.32428 -1.596282,0.53304 -0.12901,0.20875 -0.45064,1.26124 -0.714732,2.33886 l -0.480146,1.95931 -1.804291,-3.23384 c -2.206977,-3.95557 -2.341112,-4.46655 -1.563911,-5.95766 0.603545,-1.15793 0.758733,-2.41747 0.372642,-3.02449 -0.11711,-0.18413 -0.841286,-0.37644 -1.60928,-0.42738 l -1.39635,-0.0926 -1.1643478,1.92826 c -0.9279958,1.53683 -1.2069814,1.82602 -1.3743061,1.42462 -0.299457,-0.71836 -1.6420491,-6.58336 -1.6420491,-7.17314 0,-0.27123 0.5167917,-1.18578 1.1484211,-2.03236 0.6316294,-0.84658 1.1124319,-1.72159 1.0684631,-1.9445 -0.1396489,-0.70776 -1.5380015,-1.5523 -2.2633082,-1.3669 -0.3662339,0.0936 -1.3390169,0.76132 -2.1617267,1.48382 l -1.495842,1.31362 v -4.14615 -4.14617 l 0.82061,-0.42435 c 2.5216394,-1.30399 3.1932208,-2.72542 1.8990988,-4.01953 -0.9459904,-0.946 -1.7389462,-0.88121 -3.7050912,0.30274 -0.91527789,0.55116 -1.72219001,0.94408 -1.7931129,0.87314 -0.07096597,-0.071 0.34245656,-1.77197 0.91863775,-3.78009 1.08610235,-3.78533 1.79107765,-4.93329 3.02957915,-4.93329 0.3124656,0 0.9463888,-0.19562 1.4087229,-0.4347 1.0887192,-0.563 1.1420675,-1.74709 0.1219129,-2.70547 -0.6866038,-0.64503 -0.7916206,-0.65988 -2.3506104,-0.33241 -0.8975526,0.18854 -1.9434983,0.42691 -2.32434543,0.52973 -0.66555093,0.17968 -0.6445842,0.0994 0.53984753,-2.06787 1.5756598,-2.88311 2.7514334,-4.60087 3.3687189,-4.9216 0.2683353,-0.13941 1.2571637,-0.34666 2.1974036,-0.46058 0.9402506,-0.1139 1.8037416,-0.35434 1.9188702,-0.53432 0.315287,-0.49287 0.259548,-1.77643 -0.1125979,-2.59321 -0.31827,-0.69852 -0.4256451,-0.72571 -2.8660451,-0.72571 -1.5628451,0 -2.4699603,-0.10586 -2.3648359,-0.27597 0.093796,-0.15178 1.4644296,-1.45155 3.0458184,-2.88839 l 2.8752631,-2.61243 2.3788033,0.18285 c 2.301731,0.17692 2.383972,0.16204 2.538654,-0.45945 0.08787,-0.35327 0.05492,-1.1446 -0.07334,-1.75851 -0.230882,-1.10494 -0.254649,-1.12196 -2.353421,-1.68541 l -2.1201922,-0.56918 0.7904252,-0.59398 c 1.545475,-1.16137 5.684417,-3.30075 6.385796,-3.30075 0.391949,0 1.472796,0.34114 2.401869,0.75808 1.542223,0.69211 1.728544,0.71875 2.141094,0.3062 0.248532,-0.24854 0.513776,-1.096 0.589416,-1.88325 l 0.137538,-1.43136 -1.886855,-0.93045 c -1.037772,-0.51174 -1.886854,-1.00389 -1.886854,-1.09367 0,-0.18205 7.305262,-2.01025 7.977845,-1.99652 0.23506,0.005 1.068453,0.51887 1.851996,1.14236 1.66195,1.3225 2.328276,1.42288 2.713819,0.40884 0.570549,-1.50067 0.347291,-2.19549 -1.146752,-3.56903 -0.783533,-0.72035 -1.424607,-1.44955 -1.424607,-1.62046 0,-0.21799 1.251876,-0.26001 4.194261,-0.14079 4.631881,0.18767 4.37776,0.0822 5.831087,2.4207 0.723293,1.16384 1.254343,1.29872 2.525398,0.64143 1.251338,-0.6471 1.238706,-2.04771 -0.03909,-4.33776 -0.752616,-1.34879 -0.782585,-1.49584 -0.304895,-1.49584 0.29137,0 0.933542,0.14076 1.427052,0.31279 l 0.897283,0.3128 v 43.70167 43.70167 z M 2.1681751,249.30864 c 0.1882827,-0.41323 0.8259318,-0.83974 1.7416846,-1.16499 1.9273743,-0.68454 2.9281721,-1.67156 2.5021125,-2.46765 -0.1720047,-0.3214 -0.7495234,-0.79265 -1.2833727,-1.04722 -0.9048968,-0.43152 -1.0871932,-0.42758 -2.6918166,0.0583 -0.9466527,0.28663 -1.80153198,0.44079 -1.89973101,0.34259 -0.21653019,-0.21654 2.29601071,-4.68691 3.38364331,-6.02025 0.664851,-0.81505 1.0632813,-1.00511 2.7067669,-1.29118 2.955333,-0.5144 3.4068479,-1.23552 2.0128372,-3.21473 C 8.1163432,233.7596 7.972713,233.71998 5.8002596,233.71998 H 3.5120874 l 1.447303,-1.67064 c 0.7960141,-0.91885 2.13475,-2.20101 2.9749665,-2.84923 1.6175417,-1.24793 2.4152731,-1.40988 4.5276931,-0.91919 1.579179,0.36683 2.057711,-0.0997 1.864102,-1.81741 -0.08442,-0.74893 -0.324285,-1.46726 -0.533042,-1.59628 -0.208754,-0.12901 -1.261245,-0.45064 -2.338863,-0.71473 l -1.9593054,-0.48015 3.2338364,-1.80429 c 3.955561,-2.20697 4.466547,-2.34111 5.957648,-1.56391 1.157932,0.60355 2.417475,0.75873 3.024495,0.37264 0.184126,-0.11711 0.376448,-0.84128 0.427384,-1.60928 l 0.09261,-1.39635 -1.928266,-1.16435 c -1.536822,-0.92799 -1.826019,-1.20698 -1.424614,-1.3743 0.718353,-0.29946 6.583352,-1.64205 7.17314,-1.64205 0.271218,0 1.185776,0.51679 2.032354,1.14842 0.846577,0.63163 1.721598,1.11243 1.944493,1.06846 0.707771,-0.13964 1.5523,-1.538 1.366915,-2.2633 -0.09361,-0.36624 -0.761328,-1.33902 -1.483824,-2.16173 l -1.313627,-1.49584 h 4.146159 4.146159 l 0.424355,0.82061 c 1.303992,2.52164 2.725415,3.19322 4.019531,1.8991 0.945995,-0.94599 0.881204,-1.73895 -0.302748,-3.70509 -0.551154,-0.91528 -0.944068,-1.72219 -0.873139,-1.79312 0.07092,-0.071 1.771975,0.34246 3.780098,0.91864 3.785334,1.0861 4.933294,1.79108 4.933294,3.02958 0,0.31246 0.195616,0.94639 0.4347,1.40872 0.562994,1.08872 1.747079,1.14207 2.705468,0.12191 0.645031,-0.6866 0.659882,-0.79162 0.332408,-2.35061 -0.188533,-0.89755 -0.426914,-1.94349 -0.529732,-2.32434 -0.179683,-0.66555 -0.09938,-0.64459 2.067873,0.53985 2.883106,1.57566 4.600871,2.75143 4.921594,3.36872 0.139413,0.26833 0.346672,1.25716 0.460575,2.1974 0.113904,0.94025 0.354353,1.80374 0.534331,1.91887 0.492867,0.31529 1.776424,0.25955 2.59321,-0.1126 0.698525,-0.31827 0.725713,-0.42564 0.725713,-2.86604 0,-1.56285 0.105856,-2.46996 0.275964,-2.36484 0.151782,0.0938 1.45156,1.46443 2.888393,3.04582 l 2.61243,2.87526 -0.18285,2.3788 c -0.176923,2.30174 -0.162042,2.38398 0.459449,2.53866 0.353265,0.0879 1.144595,0.0549 1.75851,-0.0733 1.104939,-0.23088 1.12196,-0.25465 1.6854,-2.35342 l 0.569188,-2.12019 0.593985,0.79043 c 1.161372,1.54547 3.300743,5.68441 3.300743,6.38579 0,0.39195 -0.341132,1.4728 -0.758076,2.40187 -0.692107,1.54222 -0.718748,1.72854 -0.306198,2.14109 0.248542,0.24854 1.095999,0.51378 1.883247,0.58942 l 1.431359,0.13754 0.930451,-1.88686 c 0.511741,-1.03777 1.003894,-1.88685 1.093673,-1.88685 0.182045,0 2.010253,7.30526 1.996523,7.97784 -0.0054,0.23506 -0.51887,1.06846 -1.142369,1.852 -1.322497,1.66195 -1.422873,2.32828 -0.408835,2.71382 1.500667,0.57055 2.195487,0.34729 3.569028,-1.14675 0.720353,-0.78354 1.449548,-1.42461 1.620458,-1.42461 0.217992,0 0.260011,1.25188 0.140791,4.19426 -0.187667,4.63188 -0.08217,4.37776 -2.420694,5.83109 -1.163842,0.72329 -1.29872,1.25434 -0.641429,2.5254 0.647094,1.25133 2.047708,1.2387 4.337755,-0.0391 1.348795,-0.75261 1.495842,-0.78258 1.495842,-0.30489 0,0.29137 -0.140758,0.93354 -0.312789,1.42705 l -0.312799,0.89728 H 45.572818 1.8711518 Z"
       inkscape:connector-curvature="0" />
    <path
       inkscape:connector-curvature="0"
       id="path5133"
       style="font-style:normal;font-variant:normal;font-weight:bold;font-stretch:normal;font-size:35.27777863px;line-height:1.25;font-family:consolas;-inkscape-font-specification:'consolas Bold';text-align:center;letter-spacing:0px;word-spacing:0px;text-anchor:middle;fill:#ffffff;fill-opacity:1;stroke:none;stroke-width:0.3472904"
       d="m 28.826574,264.8312 -15.239176,-12.8425 15.239176,-12.8199 3.527169,3.57238 -11.214586,9.2023 11.214586,9.31534 z" />
    <path
       inkscape:connector-curvature="0"
       id="path5135"
       style="font-style:normal;font-variant:normal;font-weight:bold;font-stretch:normal;font-size:35.27777863px;line-height:1.25;font-family:consolas;-inkscape-font-specification:'consolas Bold';text-align:center;letter-spacing:0px;word-spacing:0px;text-anchor:middle;fill:#ffffff;fill-opacity:1;stroke:none;stroke-width:0.3472904"
       d="m 39.788382,270.40458 h -5.358583 l 15.781817,-36.80915 h 5.381193 z" />
    <path
       inkscape:connector-curvature="0"
       id="path5137"
       style="font-style:normal;font-variant:normal;font-weight:bold;font-stretch:normal;font-size:35.27777863px;line-height:1.25;font-family:consolas;-inkscape-font-specification:'consolas Bold';text-align:center;letter-spacing:0px;word-spacing:0px;text-anchor:middle;fill:#ffffff;fill-opacity:1;stroke:none;stroke-width:0.3472904"
       d="m 61.173419,239.1688 15.239175,12.8199 -15.239175,12.8425 -3.504558,-3.57238 11.191977,-9.22491 -11.191977,-9.29273 z" />
  </g>
</svg>
